nColumns=19
nRows=43
DataType=double
version=3
OpenSimVersion=4.1
endheader
time	ground_force_calcn_r_vx	ground_force_calcn_r_vy	ground_force_calcn_r_vz	ground_force_calcn_r_px	ground_force_calcn_r_py	ground_force_calcn_r_pz	ground_force_calcn_r_mx	ground_force_calcn_r_my	ground_force_calcn_r_mz	ground_force_calcn_l_vx	ground_force_calcn_l_vy	ground_force_calcn_l_vz	ground_force_calcn_l_px	ground_force_calcn_l_py	ground_force_calcn_l_pz	ground_force_calcn_l_mx	ground_force_calcn_l_my	ground_force_calcn_l_mz
8.88	12.6034	466.43	-86.758	-0.267958	0	-0.425796	-0.0272936	-1.01009	0.187881	0.943671	403.565	80.9721	-0.215886	0	-0.842738	-0.00174278	-0.745308	-0.14954
8.89	12.863	460.787	-88.2287	-0.26812	0	-0.425472	-0.0231107	-0.827884	0.158518	0.665187	397.867	82.496	-0.21566	0	-0.843113	-0.00156437	-0.935691	-0.194011
8.9	13.0687	454.331	-89.4222	-0.26821	0	-0.425112	-0.018833	-0.654725	0.128864	0.443635	391.421	83.7567	-0.215398	0	-0.843511	-0.00124902	-1.10202	-0.235811
8.91	13.2247	447.136	-90.326	-0.26822	0	-0.424713	-0.0145374	-0.49152	0.0992921	0.285667	384.34	84.7413	-0.215104	0	-0.843928	-0.000923365	-1.24231	-0.27391
8.92	13.3334	439.263	-90.9306	-0.268137	0	-0.424273	-0.0102881	-0.338936	0.0701621	0.189842	376.732	85.44	-0.214774	0	-0.844365	-0.000683169	-1.35571	-0.307466
8.93	13.3963	430.768	-91.2278	-0.267954	0	-0.423794	-0.00614035	-0.197447	0.0418153	0.146809	368.7	85.8477	-0.214401	0	-0.844818	-0.000574362	-1.44247	-0.335863
8.94	13.4144	421.697	-91.2094	-0.267668	0	-0.423276	-0.00214372	-0.0673902	0.0145759	0.140573	360.341	85.9647	-0.213977	0	-0.845285	-0.000586657	-1.50382	-0.358759
8.95	13.3891	412.098	-90.8688	-0.267281	0	-0.422726	0.00165556	0.0509557	-0.0112359	0.151336	351.746	85.7968	-0.213483	0	-0.845767	-0.00066337	-1.54185	-0.376084
8.96	13.3217	402.025	-90.2024	-0.266796	0	-0.42215	0.00521745	0.157453	-0.0353277	0.158337	343	85.3545	-0.212907	0	-0.846263	-0.000719678	-1.55901	-0.387956
8.97	13.212	391.544	-89.212	-0.266219	0	-0.421555	0.00850797	0.252137	-0.0574486	0.141707	334.191	84.6532	-0.212234	0	-0.846771	-0.000660586	-1.55788	-0.394622
8.98	13.0564	380.733	-87.9063	-0.265553	0	-0.420951	0.0114946	0.335191	-0.0773913	0.0832542	325.406	83.7136	-0.211451	0	-0.847292	-0.000394301	-1.54116	-0.396477
8.99	12.8475	369.677	-86.3029	-0.264802	0	-0.420341	0.0141414	0.406909	-0.0949949	-0.0327584	316.73	82.5621	-0.210545	0	-0.847825	0.000156354	-1.51174	-0.394065
9	12.5759	358.471	-84.4272	-0.26396	0	-0.419727	0.0164093	0.46774	-0.110162	-0.218764	308.247	81.2296	-0.209507	0	-0.848369	0.00104504	-1.4725	-0.388034
9.01	12.2336	347.217	-82.3111	-0.263027	0	-0.419111	0.0182587	0.518221	-0.122849	-0.483052	300.038	79.7496	-0.208326	0	-0.848922	0.00229608	-1.42617	-0.379072
9.02	11.8161	336.022	-79.9919	-0.261998	0	-0.418493	0.0196563	0.558978	-0.133068	-0.830063	292.184	78.1559	-0.207	0	-0.849484	0.00390684	-1.37522	-0.367854
9.03	11.3221	325.002	-77.5117	-0.26087	0	-0.417871	0.0205761	0.59064	-0.140866	-1.26121	284.76	76.4809	-0.205529	0	-0.85005	0.00585336	-1.32159	-0.354953
9.04	10.7521	314.281	-74.9162	-0.259642	0	-0.417244	0.0209929	0.613612	-0.146269	-1.77498	277.836	74.7527	-0.203921	0	-0.850617	0.00809236	-1.26669	-0.340808
9.05	10.1096	303.982	-72.2526	-0.258317	0	-0.416615	0.0208829	0.62792	-0.149248	-2.3668	271.471	72.9941	-0.202194	0	-0.851177	0.0105618	-1.21143	-0.325734
9.06	9.40265	294.23	-69.5678	-0.256903	0	-0.415985	0.0202391	0.633327	-0.149744	-3.02873	265.713	71.2237	-0.200369	0	-0.851726	0.0131787	-1.15618	-0.309911
9.07	8.64329	285.145	-66.9078	-0.255416	0	-0.415355	0.0190824	0.629534	-0.147717	-3.74951	260.594	69.4582	-0.19848	0	-0.852252	0.0158404	-1.10093	-0.293438
9.08	7.84431	276.84	-64.3172	-0.253875	0	-0.414735	0.0174666	0.616427	-0.143212	-4.51579	256.133	67.7133	-0.196561	0	-0.852748	0.0184312	-1.04541	-0.276371
9.09	7.01709	269.409	-61.8393	-0.252303	0	-0.414128	0.0154775	0.594233	-0.136398	-5.31252	252.33	66.0046	-0.194653	0	-0.853205	0.0208265	-0.989197	-0.258755
9.1	6.17167	262.923	-59.5155	-0.250725	0	-0.413542	0.0132304	0.563635	-0.127585	-6.12273	249.168	64.3466	-0.192796	0	-0.853618	0.0228988	-0.931881	-0.240654
9.11	5.31888	257.426	-57.3828	-0.249167	0	-0.412979	0.0108629	0.52575	-0.117195	-6.92689	246.616	62.7509	-0.191032	0	-0.853978	0.0245224	-0.873061	-0.222149
9.12	4.47186	252.936	-55.472	-0.24766	0	-0.412446	0.00852267	0.482057	-0.105721	-7.70365	244.624	61.2266	-0.189404	0	-0.854283	0.0255841	-0.812406	-0.203336
9.13	3.64526	249.448	-53.8065	-0.246239	0	-0.411948	0.00634623	0.434278	-0.0936747	-8.43208	243.138	59.7815	-0.187951	0	-0.854528	0.0260022	-0.749769	-0.18435
9.14	2.85371	246.943	-52.4007	-0.244937	0	-0.41149	0.00444074	0.384276	-0.0815424	-9.09363	242.1	58.4238	-0.186707	0	-0.854713	0.0257455	-0.685422	-0.165407
9.15	2.11028	245.385	-51.2597	-0.243787	0	-0.411079	0.00287076	0.333815	-0.0697322	-9.67456	241.458	57.1615	-0.185696	0	-0.854837	0.0248457	-0.6201	-0.146799
9.16	1.4253	244.727	-50.3791	-0.242819	0	-0.410722	0.00165702	0.284513	-0.0585695	-10.1683	241.165	56.0031	-0.184932	0	-0.8549	0.0233995	-0.554977	-0.128876
9.17	0.805229	244.901	-49.7453	-0.242053	0	-0.410427	0.000781941	0.237818	-0.0483067	-10.5751	241.182	54.9567	-0.184422	0	-0.854907	0.0215499	-0.491479	-0.111991
9.18	0.252186	245.82	-49.3361	-0.241503	0	-0.410199	0.000199895	0.194849	-0.0391062	-10.8999	241.475	54.0279	-0.184164	0	-0.85486	0.0194522	-0.43094	-0.0964192
9.19	-0.235855	247.377	-49.1208	-0.241168	0	-0.410044	-0.000149022	0.156302	-0.0310364	-11.1497	242.016	53.2163	-0.184153	0	-0.854763	0.0172404	-0.374221	-0.0822867
9.2	-0.66365	249.448	-49.0619	-0.241041	0	-0.409965	-0.000325681	0.122415	-0.0240767	-11.3323	242.778	52.514	-0.184377	0	-0.854617	0.0150046	-0.321454	-0.0695319
9.21	-1.03757	251.905	-49.1164	-0.241107	0	-0.409966	-0.000382811	0.0929401	-0.0181215	-11.4567	243.732	51.9051	-0.184817	0	-0.854426	0.0127857	-0.272005	-0.0579262
9.22	-1.36579	254.619	-49.2394	-0.24135	0	-0.410046	-0.000360185	0.0671479	-0.0129854	-11.5342	244.84	51.3687	-0.185451	0	-0.854195	0.0105837	-0.224662	-0.0471354
9.23	-1.65723	257.471	-49.3864	-0.241747	0	-0.410209	-0.000282616	0.0439077	-0.00842208	-11.5784	246.059	50.8821	-0.186248	0	-0.853926	0.0083664	-0.177799	-0.0367667
9.24	-1.92009	260.35	-49.5134	-0.242277	0	-0.410454	-0.000161269	0.0218669	-0.00415865	-11.603	247.346	50.4231	-0.187177	0	-0.853627	0.00608608	-0.12974	-0.0264484
9.25	-2.16022	263.151	-49.578	-0.242921	0	-0.41078	3.2977e-06	-0.000401714	7.56835e-05	-11.6201	248.655	49.9727	-0.188206	0	-0.853303	0.00369032	-0.078968	-0.0158704
9.26	-2.37888	265.777	-49.5396	-0.243659	0	-0.411183	0.00021794	-0.0243491	0.00453856	-11.6379	249.947	49.5137	-0.189308	0	-0.852962	0.00112222	-0.0241019	-0.00477451
9.27	-2.57019	268.141	-49.3605	-0.244478	0	-0.411657	0.000493427	-0.0514778	0.00947627	-11.6572	251.186	49.0291	-0.190458	0	-0.852607	-0.00167325	0.0360547	0.00703753
9.28	-2.71909	270.164	-49.0094	-0.245362	0	-0.412193	0.000838744	-0.0833361	0.0151176	-11.6711	252.335	48.5025	-0.191637	0	-0.852242	-0.00473404	0.102352	0.0196737
9.29	-2.80126	271.79	-48.4664	-0.246301	0	-0.412783	0.00125126	-0.121403	0.0216489	-11.6662	253.37	47.9203	-0.192832	0	-0.851871	-0.00806862	0.175237	0.0331429
9.3	-2.78907	272.992	-47.7301	-0.247288	0	-0.413409	0.00170561	-0.166943	0.0291885	-11.6226	254.286	47.2741	-0.194032	0	-0.851494	-0.0116462	0.254802	0.0473701
